<svg width="24" height="24" viewBox="0 0 24 24" fill="none" xmlns="http://www.w3.org/2000/svg">
<path d="M11.9759 0C5.36016 0 0 5.36016 0 11.9759C0 18.5915 5.36016 23.9517 11.9759 23.9517C18.5915 23.9517 23.9517 18.5915 23.9517 11.9759C24 5.36016 18.5915 0 11.9759 0ZM14.9698 12.4105H13.0382C13.0382 15.5493 13.0382 19.3642 13.0382 19.3642H10.1408C10.1408 19.3642 10.1408 15.5493 10.1408 12.4105H8.78873V9.94769H10.1408V8.35413C10.1408 7.19517 10.672 5.45674 13.0382 5.45674H15.163V7.82294C15.163 7.82294 13.8592 7.82294 13.6177 7.82294C13.3763 7.82294 13.0382 7.96781 13.0382 8.49899V9.94769H15.2596L14.9698 12.4105Z" fill="white" fill-opacity="0.6"/>
</svg>
