<svg width="39" height="39" viewBox="0 0 39 39" fill="none" xmlns="http://www.w3.org/2000/svg">
<path d="M19.4608 0C8.71026 0 0 8.71026 0 19.4608C0 30.2113 8.71026 38.9215 19.4608 38.9215C30.2113 38.9215 38.9215 30.2113 38.9215 19.4608C39 8.71026 30.2113 0 19.4608 0ZM24.326 20.167H21.1871C21.1871 25.2676 21.1871 31.4668 21.1871 31.4668H16.4789C16.4789 31.4668 16.4789 25.2676 16.4789 20.167H14.2817V16.165H16.4789V13.5755C16.4789 11.6922 17.3421 8.8672 21.1871 8.8672H24.6398V12.7123C24.6398 12.7123 22.5211 12.7123 22.1288 12.7123C21.7364 12.7123 21.1871 12.9477 21.1871 13.8109V16.165H24.7968L24.326 20.167Z" fill="white"/>
</svg>
