<svg width="17" height="13" viewBox="0 0 17 13" fill="none" xmlns="http://www.w3.org/2000/svg">
<path d="M16.125 0.664551H0.375C0.275544 0.664551 0.180161 0.705164 0.109835 0.777456C0.0395088 0.849747 0 0.947796 0 1.05003L0 12.6145C0 12.7167 0.0395088 12.8148 0.109835 12.887C0.180161 12.9593 0.275544 12.9999 0.375 12.9999H16.125C16.2245 12.9999 16.3198 12.9593 16.3902 12.887C16.4605 12.8148 16.5 12.7167 16.5 12.6145V1.05003C16.5 0.947796 16.4605 0.849747 16.3902 0.777456C16.3198 0.705164 16.2245 0.664551 16.125 0.664551ZM15.75 11.2965L11.1045 6.52155L10.5743 7.06662L15.5963 12.229H0.90375L5.92575 7.06662L5.3955 6.52155L0.75 11.2965V1.43551H15.75V11.2965Z" fill="white"/>
<path d="M14.9921 1.43555L8.25 8.36611L1.50787 1.43555H0.75V1.74663L7.98487 9.18372C8.01967 9.21955 8.061 9.24797 8.10649 9.26737C8.15198 9.28676 8.20075 9.29674 8.25 9.29674C8.29925 9.29674 8.34802 9.28676 8.39351 9.26737C8.439 9.24797 8.48033 9.21955 8.51513 9.18372L15.75 1.74663V1.43555H14.9921Z" fill="white"/>
</svg>
