<svg width="17" height="13" viewBox="0 0 17 13" fill="none" xmlns="http://www.w3.org/2000/svg">
<path d="M16.125 0.664612H0.375C0.275544 0.664612 0.180161 0.705225 0.109835 0.777517C0.0395088 0.849808 0 0.947857 0 1.05009L0 12.6145C0 12.7168 0.0395088 12.8148 0.109835 12.8871C0.180161 12.9594 0.275544 13 0.375 13H16.125C16.2245 13 16.3198 12.9594 16.3902 12.8871C16.4605 12.8148 16.5 12.7168 16.5 12.6145V1.05009C16.5 0.947857 16.4605 0.849808 16.3902 0.777517C16.3198 0.705225 16.2245 0.664612 16.125 0.664612ZM15.75 11.2966L11.1045 6.52161L10.5743 7.06668L15.5963 12.229H0.90375L5.92575 7.06668L5.3955 6.52161L0.75 11.2966V1.43557H15.75V11.2966Z" fill="white"/>
<path d="M14.9921 1.43558L8.25 8.36614L1.50787 1.43558H0.75V1.74666L7.98487 9.18375C8.01967 9.21958 8.061 9.248 8.10649 9.2674C8.15198 9.28679 8.20075 9.29677 8.25 9.29677C8.29925 9.29677 8.34802 9.28679 8.39351 9.2674C8.439 9.248 8.48033 9.21958 8.51513 9.18375L15.75 1.74666V1.43558H14.9921Z" fill="white"/>
</svg>
