<svg width="177" height="49" viewBox="0 0 177 49" fill="none" xmlns="http://www.w3.org/2000/svg">
<path d="M24.7283 42.63C24.7283 42.63 24.7283 42.4666 24.7283 42.63C24.7283 42.4666 24.7283 42.4666 24.7283 42.63C26.8433 40.18 28.3074 37.8933 29.1209 35.4433C30.2597 32.1766 30.5851 28.91 30.4224 25.6433C30.2597 23.1933 29.9343 20.9066 29.4463 18.7833C29.2836 17.8033 28.9582 16.9866 28.7955 16.17C28.6328 15.8433 28.6328 15.5166 28.4701 15.19C28.1448 14.0466 27.8194 13.3933 27.8194 13.3933C27.8194 13.3933 28.1448 14.0466 28.4701 15.19C27.8194 13.0666 27.1686 11.4333 26.5179 9.9633C25.3791 7.5133 24.5656 6.0433 24.5656 6.0433C24.5656 6.0433 23.5895 7.34997 22.4507 9.4733C21.9626 10.4533 21.4746 11.4333 20.9865 12.5766C20.6611 13.3933 20.3358 14.21 20.0104 15.0266C20.1731 15.19 20.1731 15.3533 20.3358 15.68C20.1731 15.3533 20.0104 15.19 20.0104 15.0266C19.685 16.0066 19.3596 16.9866 19.197 17.9666V18.13C18.8716 20.09 18.5462 22.2133 18.5462 24.8266C18.5462 25.1533 18.5462 25.48 18.5462 25.6433C18.8716 30.2166 20.3358 35.6066 23.9149 41.4866C24.0776 41.8133 24.4029 42.3033 24.5656 42.63V42.4666C24.2403 41.8133 23.7522 40.18 23.4268 38.0566C23.1014 35.4433 23.1014 31.85 24.5656 28.2566V28.0933C24.5656 28.2566 24.7283 28.2566 24.7283 28.42C26.0298 31.36 26.1925 34.3 26.0298 36.5866C25.8671 37.8933 25.7044 39.2 25.3791 40.18C25.2164 40.67 25.0537 41.16 25.0537 41.4866C24.891 42.14 24.7283 42.4666 24.7283 42.63C24.7283 42.63 24.5656 42.63 24.7283 42.63Z" fill="white"/>
<path d="M36.2793 3.10333C32.7001 1.14333 28.7957 0 24.4031 0C10.9 0 0 10.9433 0 24.5C0 38.0567 10.9 49 24.4031 49C37.9061 49 48.8062 38.0567 48.8062 24.5C48.8062 20.09 47.6674 16.0067 45.7151 12.5767L43.1121 14.0467C44.9017 17.3133 45.8778 20.9067 45.8778 24.99C45.8778 37.24 35.9539 47.2033 23.7523 47.2033C11.5508 47.2033 1.62687 37.24 1.62687 24.99C1.62687 12.74 11.5508 2.77667 23.7523 2.77667C27.8195 2.77667 31.5613 3.92 34.8151 5.71667L33.1882 8.82L41.8106 8.65667L37.2554 1.30667L36.2793 3.10333Z" fill="white"/>
<path d="M60.5248 14.2342H64.2452V22.238H71.4202V14.2342H75.1405V34.2437H71.4202V25.9731H64.2452V34.2437H60.5248V14.2342Z" fill="white"/>
<path d="M82.5813 14.2342V28.3743L91.3507 14.2342H95.0711V34.2437H91.3507V20.1036L82.5813 34.2437H78.861V14.2342H82.5813Z" fill="white"/>
<path d="M98.7913 14.2342H113.407V34.2437H109.687V17.7025H102.246V34.2437H98.7913V14.2342Z" fill="white"/>
<path d="M120.582 14.2342V28.3743L129.351 14.2342H133.072V34.2437H129.351V20.1036L120.582 34.2437H116.862V14.2342H120.582Z" fill="white"/>
<path d="M136.792 14.2342H146.624V17.7025H140.512V34.2437H136.792V14.2342Z" fill="white"/>
<path d="M156.191 25.4395L154.065 19.5701L151.939 25.4395H156.191ZM152.471 14.2342H155.394L163.632 34.2437H159.646L157.52 29.1746H150.345L148.219 34.2437H144.233L152.471 14.2342Z" fill="white"/>
<path d="M170.275 13.9673C173.73 13.9673 176.387 16.1017 176.387 19.57C176.387 21.7044 175.058 23.0383 173.464 23.8387C175.324 24.3723 176.919 25.9731 176.919 28.641C176.919 32.3761 173.996 34.5105 170.009 34.5105C166.289 34.5105 163.1 32.1094 163.366 28.1074H167.086C167.086 29.1746 167.618 31.0422 170.009 31.0422C172.135 31.0422 172.933 29.7082 172.933 28.3742C172.933 27.0403 172.135 25.7063 170.275 25.7063H168.415V22.238H170.009C171.604 22.238 172.401 21.4376 172.401 20.1036C172.401 18.5028 171.604 17.7024 170.009 17.7024C168.681 17.7024 167.618 18.5028 167.618 19.57H164.163C164.163 16.3685 166.289 13.9673 170.275 13.9673Z" fill="white"/>
</svg>
