<svg width="14" height="14" viewBox="0 0 14 14" fill="none" xmlns="http://www.w3.org/2000/svg">
<path d="M11.7854 8.34543C11.4798 8.02867 11.1112 7.85932 10.7206 7.85932C10.3331 7.85932 9.9614 8.02554 9.64323 8.34229L8.64775 9.3302C8.56585 9.28629 8.48394 9.24552 8.40519 9.20475C8.29178 9.1483 8.18467 9.09498 8.09331 9.03853C7.16084 8.44892 6.31343 7.68056 5.50067 6.68638C5.10689 6.19086 4.84227 5.77375 4.65011 5.35036C4.90843 5.11514 5.14784 4.87052 5.38096 4.6353C5.46917 4.54749 5.55737 4.45654 5.64558 4.36873C6.30713 3.71013 6.30713 2.85708 5.64558 2.19848L4.78557 1.34229C4.68791 1.24507 4.5871 1.14471 4.49259 1.04435C4.30358 0.84991 4.10512 0.649194 3.90035 0.461021C3.59478 0.159946 3.22935 0 2.84502 0C2.46069 0 2.08897 0.159946 1.77394 0.461021L1.76764 0.467294L0.696563 1.54301C0.293334 1.94444 0.0633665 2.43369 0.0129627 3.00134C-0.0626429 3.91711 0.208277 4.77016 0.416193 5.3284C0.926531 6.69893 1.68889 7.96909 2.82612 9.3302C4.20592 10.9704 5.8661 12.2657 7.76254 13.1783C8.48709 13.5202 9.45421 13.9247 10.5347 13.9937C10.6009 13.9969 10.6702 14 10.7332 14C11.4609 14 12.0721 13.7397 12.5509 13.2222C12.554 13.216 12.5603 13.2128 12.5635 13.2065C12.7273 13.009 12.9163 12.8302 13.1148 12.6389C13.2502 12.5103 13.3889 12.3754 13.5243 12.2343C13.8362 11.9113 14 11.5349 14 11.1492C14 10.7603 13.833 10.3871 13.5149 10.0735L11.7854 8.34543ZM12.9132 11.6479C12.91 11.6479 12.91 11.651 12.9132 11.6479C12.7903 11.7796 12.6643 11.8987 12.5288 12.0305C12.3241 12.2249 12.1162 12.4288 11.9208 12.6577C11.6027 12.9964 11.2278 13.1564 10.7364 13.1564C10.6891 13.1564 10.6387 13.1564 10.5914 13.1532C9.65583 13.0936 8.78636 12.7298 8.13426 12.4194C6.35123 11.56 4.78557 10.3401 3.48452 8.79391C2.41029 7.50493 1.69204 6.31317 1.21635 5.0336C0.92338 4.25269 0.816272 3.64427 0.863526 3.07034C0.895028 2.70341 1.03679 2.39919 1.29826 2.13889L2.37249 1.06944C2.52685 0.925179 2.69066 0.846774 2.85132 0.846774C3.04979 0.846774 3.21045 0.96595 3.31126 1.06631L3.32071 1.07572C3.51287 1.25448 3.69559 1.43952 3.88775 1.6371C3.98541 1.73746 4.08621 1.83781 4.18702 1.94131L5.04704 2.79749C5.38096 3.12993 5.38096 3.43728 5.04704 3.76971C4.95568 3.86066 4.86747 3.95161 4.77612 4.03943C4.5115 4.30914 4.25948 4.56004 3.98541 4.80466C3.97911 4.81093 3.97281 4.81407 3.96966 4.82034C3.69874 5.09005 3.74914 5.35349 3.80584 5.53226L3.81529 5.56048C4.03896 6.09991 4.35398 6.60798 4.83282 7.21326L4.83597 7.2164C5.70544 8.28271 6.62215 9.1138 7.63338 9.75045C7.76254 9.83199 7.89485 9.89785 8.02086 9.96057C8.13426 10.017 8.24137 10.0703 8.33273 10.1268C8.34533 10.1331 8.35793 10.1425 8.37053 10.1487C8.47764 10.2021 8.57845 10.2272 8.68241 10.2272C8.94388 10.2272 9.10769 10.0641 9.16124 10.0108L10.2386 8.93817C10.3457 8.83154 10.5158 8.70296 10.7143 8.70296C10.9096 8.70296 11.0703 8.82527 11.1679 8.9319L11.1742 8.93817L12.91 10.6662C13.2345 10.9861 13.2345 11.3154 12.9132 11.6479Z" fill="white"/>
</svg>
