<svg width="14" height="21" viewBox="0 0 14 21" fill="none" xmlns="http://www.w3.org/2000/svg">
<path d="M7 0C10.8598 0 14 3.18409 14 7.09786C14 8.67062 13.0868 11.0625 11.1262 14.6251C9.78827 17.0561 8.45653 19.1093 8.40034 19.1958L7.43779 20.6752C7.39003 20.7487 7.32503 20.809 7.24862 20.8507C7.17221 20.8925 7.08678 20.9143 7 20.9143C6.91322 20.9143 6.82779 20.8925 6.75138 20.8507C6.67497 20.809 6.60997 20.7487 6.56221 20.6752L5.5997 19.1959C5.54406 19.1104 4.22201 17.0749 2.87382 14.6251C0.913172 11.0626 0 8.67078 0 7.09786C0 3.18409 3.14021 0 7 0ZM3.78976 14.1068C5.1192 16.5223 6.42035 18.5259 6.47519 18.6101L7 19.4167L7.52464 18.6103C7.57977 18.5254 8.89092 16.5039 10.2102 14.1068C12.0289 10.8021 12.9511 8.44394 12.9511 7.09786C12.9511 3.77057 10.2814 1.06362 7 1.06362C3.71856 1.06362 1.04895 3.77057 1.04895 7.09786C1.04895 8.44411 1.9711 10.8022 3.78976 14.1068Z" fill="white"/>
<path d="M7 3.11841C9.14006 3.11841 10.8811 4.88381 10.8811 7.05372C10.8811 9.22362 9.14006 10.989 7 10.989C4.85994 10.989 3.1189 9.22362 3.1189 7.05372C3.1189 4.88381 4.85994 3.11841 7 3.11841ZM7 9.92543C8.56167 9.92543 9.83216 8.6372 9.83216 7.05372C9.83216 5.47023 8.56167 4.18201 7 4.18201C5.43829 4.18201 4.16784 5.47023 4.16784 7.05372C4.16784 8.6372 5.43829 9.92543 7 9.92543Z" fill="white"/>
</svg>
