<svg width="24" height="24" viewBox="0 0 24 24" fill="none" xmlns="http://www.w3.org/2000/svg">
<path d="M11.9759 0C5.36016 0 0 5.36016 0 11.9759C0 18.5915 5.36016 23.9517 11.9759 23.9517C18.5915 23.9517 23.9517 18.5915 23.9517 11.9759C24 5.36016 18.5915 0 11.9759 0ZM17.336 9.22334C17.336 9.31992 17.336 9.46479 17.336 9.56137C17.336 13.2314 14.5835 17.4326 9.46479 17.4326C7.91952 17.4326 6.47083 16.998 5.21529 16.1771C5.40845 16.2254 5.6499 16.2254 5.89135 16.2254C7.19517 16.2254 8.35413 15.7907 9.31992 15.0664C8.11268 15.0664 7.09859 14.2455 6.76056 13.1348C6.90543 13.1831 7.09859 13.1831 7.29175 13.1831C7.5332 13.1831 7.77465 13.1348 8.0161 13.0865C6.76056 12.8451 5.79477 11.7344 5.79477 10.3823C5.79477 10.3823 5.79477 10.3823 5.79477 10.334C6.18109 10.5272 6.61569 10.672 7.0503 10.672C6.32596 10.1891 5.84306 9.31992 5.84306 8.35413C5.84306 7.87123 5.98793 7.38833 6.22938 6.95372C7.58149 8.64386 9.60966 9.70624 11.9276 9.85111C11.8793 9.65795 11.8793 9.4165 11.8793 9.22334C11.8793 7.67807 13.1348 6.47083 14.6318 6.47083C15.4044 6.47083 16.1288 6.80885 16.66 7.34004C17.2877 7.19517 17.8672 7.00201 18.3984 6.66398C18.2052 7.29175 17.7706 7.87123 17.1911 8.20926C17.7706 8.16097 18.3018 8.0161 18.7847 7.77465C18.3501 8.35413 17.8672 8.83702 17.336 9.22334Z" fill="white" fill-opacity="0.6"/>
</svg>
