<svg width="40" height="39" viewBox="0 0 40 39" fill="none" xmlns="http://www.w3.org/2000/svg">
<path d="M20.3358 0C9.58526 0 0.875 8.71026 0.875 19.4608C0.875 30.2113 9.58526 38.9215 20.3358 38.9215C31.0863 38.9215 39.7965 30.2113 39.7965 19.4608C39.875 8.71026 31.0863 0 20.3358 0ZM29.046 14.9879C29.046 15.1449 29.046 15.3803 29.046 15.5372C29.046 21.501 24.5732 28.328 16.2553 28.328C13.7442 28.328 11.3901 27.6217 9.34985 26.2877C9.66373 26.3662 10.0561 26.3662 10.4484 26.3662C12.5672 26.3662 14.4505 25.66 16.0199 24.4829C14.0581 24.4829 12.4102 23.1489 11.8609 21.3441C12.0963 21.4225 12.4102 21.4225 12.7241 21.4225C13.1164 21.4225 13.5088 21.3441 13.9012 21.2656C11.8609 20.8732 10.2915 19.0684 10.2915 16.8712C10.2915 16.8712 10.2915 16.8712 10.2915 16.7928C10.9193 17.1066 11.6255 17.3421 12.3317 17.3421C11.1547 16.5573 10.37 15.1449 10.37 13.5755C10.37 12.7907 10.6054 12.006 10.9977 11.2998C13.1949 14.0463 16.4907 15.7726 20.2573 16.008C20.1788 15.6942 20.1788 15.3018 20.1788 14.9879C20.1788 12.4769 22.2191 10.5151 24.6517 10.5151C25.9072 10.5151 27.0843 11.0644 27.9474 11.9276C28.9676 11.6922 29.9092 11.3783 30.7724 10.829C30.4585 11.8491 29.7523 12.7907 28.8106 13.34C29.7523 13.2616 30.6154 13.0262 31.4002 12.6338C30.6939 13.5755 29.9092 14.3602 29.046 14.9879Z" fill="white"/>
</svg>
