<svg width="40" height="39" viewBox="0 0 40 39" fill="none" xmlns="http://www.w3.org/2000/svg">
<path d="M17.1961 23.1535L23.5392 19.5002L17.1961 15.8469V23.1535Z" fill="white"/>
<path d="M19.625 0C8.85709 0 0.125 8.73209 0.125 19.5C0.125 30.2679 8.85709 39 19.625 39C30.3929 39 39.125 30.2679 39.125 19.5C39.125 8.73209 30.3929 0 19.625 0ZM31.8095 19.5199C31.8095 19.5199 31.8095 23.4746 31.3079 25.3816C31.0267 26.4254 30.2037 27.2484 29.1599 27.5293C27.2529 28.0312 19.625 28.0312 19.625 28.0312C19.625 28.0312 12.017 28.0312 10.0901 27.5094C9.04633 27.2285 8.22332 26.4052 7.94214 25.3614C7.44018 23.4746 7.44018 19.5 7.44018 19.5C7.44018 19.5 7.44018 15.5456 7.94214 13.6386C8.22302 12.5948 9.06627 11.7516 10.0901 11.4707C11.9971 10.9688 19.625 10.9688 19.625 10.9688C19.625 10.9688 27.2529 10.9688 29.1599 11.4906C30.2037 11.7715 31.0267 12.5948 31.3079 13.6386C31.8298 15.5456 31.8095 19.5199 31.8095 19.5199Z" fill="white"/>
</svg>
